<svg width="24" height="24" viewBox="0 0 24 24" fill="none" xmlns="http://www.w3.org/2000/svg">
<path d="M11.6352 0.979657C11.6645 1.26729 11.5783 1.55476 11.3956 1.77886C11.213 2.00296 10.9488 2.14534 10.6612 2.1747C8.88349 2.35958 7.19457 3.04434 5.79007 4.14965C4.38557 5.25496 3.32298 6.73559 2.7254 8.41999C2.12782 10.1044 2.0197 11.9236 2.41358 13.667C2.80746 15.4103 3.68721 17.0064 4.95091 18.2702C6.21461 19.5341 7.81055 20.4141 9.55382 20.8082C11.2971 21.2023 13.1164 21.0945 14.8008 20.4971C16.4853 19.8998 17.9661 18.8374 19.0716 17.4331C20.1771 16.0287 20.8621 14.3399 21.0473 12.5622C21.0598 12.4182 21.1009 12.2781 21.1681 12.15C21.2353 12.022 21.3273 11.9086 21.4387 11.8165C21.5502 11.7244 21.6788 11.6553 21.8172 11.6134C21.9556 11.5714 22.1009 11.5574 22.2447 11.5722C22.3886 11.5869 22.528 11.6301 22.655 11.6993C22.782 11.7685 22.894 11.8622 22.9844 11.975C23.0748 12.0878 23.1419 12.2175 23.1817 12.3565C23.2215 12.4955 23.2333 12.6411 23.2163 12.7847C22.9892 14.9726 22.1468 17.0514 20.7865 18.7802C19.4263 20.5089 17.6041 21.8168 15.531 22.5523C13.4579 23.2878 11.2188 23.4208 9.07321 22.9358C6.92762 22.4509 4.96338 21.3678 3.40813 19.8122C1.85288 18.2566 0.770283 16.2921 0.285808 14.1464C-0.198666 12.0007 -0.0651853 9.76167 0.670782 7.68874C1.40675 5.6158 2.71507 3.79385 4.44413 2.43403C6.17318 1.07422 8.25218 0.232214 10.4402 0.00559773C10.7278 -0.0236513 11.0153 0.06253 11.2394 0.245191C11.4635 0.427852 11.6059 0.692038 11.6352 0.979657ZM13.1181 0.883705C13.1514 0.744268 13.2119 0.612765 13.296 0.496721C13.3802 0.380678 13.4864 0.282371 13.6087 0.207427C13.7309 0.132483 13.8666 0.0823729 14.0082 0.0599643C14.1498 0.0375558 14.2945 0.0432886 14.4338 0.0768349C14.9843 0.208648 15.5189 0.37826 16.0374 0.585672C16.2986 0.697727 16.5058 0.907377 16.6147 1.16995C16.7236 1.43252 16.7257 1.72724 16.6205 1.99132C16.5153 2.2554 16.3111 2.46794 16.0515 2.58367C15.7918 2.69939 15.4972 2.70914 15.2305 2.61084C14.8089 2.44317 14.3737 2.30554 13.925 2.19796C13.644 2.13038 13.4013 1.95399 13.2502 1.70755C13.0992 1.46111 13.0508 1.16478 13.1181 0.883705ZM22.6377 7.1831C22.5307 6.91436 22.3214 6.69912 22.0557 6.58475C21.79 6.47037 21.4897 6.46623 21.221 6.57323C20.9522 6.68022 20.737 6.8896 20.6226 7.15529C20.5083 7.42098 20.5041 7.72122 20.6111 7.98997C20.7788 8.41255 20.9169 8.84772 21.0254 9.2955C21.0929 9.57678 21.2694 9.81973 21.516 9.97091C21.6381 10.0458 21.7737 10.0958 21.9152 10.1183C22.0567 10.1407 22.2011 10.1351 22.3404 10.1016C22.4797 10.0682 22.611 10.0077 22.7269 9.92355C22.8428 9.83939 22.941 9.73322 23.0158 9.61111C23.0907 9.48901 23.1408 9.35335 23.1632 9.21189C23.1856 9.07043 23.18 8.92594 23.1466 8.78666C23.0159 8.24056 22.8458 7.70464 22.6377 7.1831ZM17.8765 2.75186C18.0664 2.53385 18.3351 2.4002 18.6236 2.3803C18.912 2.3604 19.1966 2.45587 19.4146 2.64573C19.8614 3.03439 20.2772 3.45454 20.662 3.90619C20.8494 4.12655 20.9416 4.41232 20.9182 4.70064C20.8949 4.98897 20.758 5.25622 20.5377 5.44361C20.3173 5.631 20.0316 5.72318 19.7432 5.69987C19.4549 5.67656 19.1877 5.53966 19.0003 5.31931C18.6859 4.95249 18.3458 4.60851 17.9826 4.29C17.7646 4.10008 17.6309 3.83135 17.611 3.54291C17.5911 3.25446 17.6866 2.96992 17.8765 2.75186ZM11.6396 5.40363C11.6396 5.11445 11.5247 4.83711 11.3202 4.63262C11.1157 4.42814 10.8384 4.31326 10.5492 4.31326C10.26 4.31326 9.9827 4.42814 9.77822 4.63262C9.57374 4.83711 9.45886 5.11445 9.45886 5.40363V12.6727C9.45886 13.2761 9.94734 13.7631 10.5492 13.7631H14.9107C15.1999 13.7631 15.4772 13.6482 15.6817 13.4437C15.8862 13.2392 16.001 12.9619 16.001 12.6727C16.001 12.3835 15.8862 12.1062 15.6817 11.9017C15.4772 11.6972 15.1999 11.5824 14.9107 11.5824H11.6396V5.40363Z" fill="#A1A1A1"/>
</svg>
