<svg width="25" height="24" viewBox="0 0 25 24" fill="none" xmlns="http://www.w3.org/2000/svg">
<path fill-rule="evenodd" clip-rule="evenodd" d="M16.8711 9.00024C16.8711 10.0611 16.4497 11.0785 15.6995 11.8287C14.9494 12.5788 13.932 13.0002 12.8711 13.0002C11.8102 13.0002 10.7928 12.5788 10.0427 11.8287C9.29252 11.0785 8.87109 10.0611 8.87109 9.00024C8.87109 7.93938 9.29252 6.92196 10.0427 6.17182C10.7928 5.42167 11.8102 5.00024 12.8711 5.00024C13.932 5.00024 14.9494 5.42167 15.6995 6.17182C16.4497 6.92196 16.8711 7.93938 16.8711 9.00024ZM14.8711 9.00024C14.8711 9.53068 14.6604 10.0394 14.2853 10.4145C13.9102 10.7895 13.4015 11.0002 12.8711 11.0002C12.3407 11.0002 11.832 10.7895 11.4569 10.4145C11.0818 10.0394 10.8711 9.53068 10.8711 9.00024C10.8711 8.46981 11.0818 7.9611 11.4569 7.58603C11.832 7.21096 12.3407 7.00024 12.8711 7.00024C13.4015 7.00024 13.9102 7.21096 14.2853 7.58603C14.6604 7.9611 14.8711 8.46981 14.8711 9.00024Z" fill="#A1A1A1"/>
<path fill-rule="evenodd" clip-rule="evenodd" d="M12.875 1C6.8 1 1.875 5.925 1.875 12C1.875 18.075 6.8 23 12.875 23C18.95 23 23.875 18.075 23.875 12C23.875 5.925 18.95 1 12.875 1ZM3.875 12C3.875 14.09 4.588 16.014 5.783 17.542C6.62223 16.4399 7.7049 15.5467 8.94643 14.9323C10.188 14.3179 11.5547 13.9988 12.94 14C14.3073 13.9987 15.6569 14.3095 16.8859 14.9088C18.1149 15.508 19.191 16.3799 20.032 17.458C20.8984 16.3216 21.4818 14.9952 21.7339 13.5886C21.9859 12.182 21.8994 10.7355 21.4815 9.36898C21.0636 8.00243 20.3262 6.75505 19.3305 5.73004C18.3347 4.70503 17.1092 3.93186 15.7554 3.47451C14.4015 3.01716 12.9582 2.88877 11.5449 3.09997C10.1315 3.31117 8.78879 3.85589 7.62777 4.68905C6.46675 5.52221 5.52081 6.61987 4.86823 7.89119C4.21565 9.16252 3.87518 10.571 3.875 12ZM12.875 21C10.8089 21.0031 8.80526 20.2923 7.203 18.988C7.84793 18.0647 8.70634 17.3109 9.70519 16.7907C10.704 16.2704 11.8138 15.9992 12.94 16C14.0522 15.9991 15.1485 16.2636 16.1379 16.7714C17.1274 17.2793 17.9814 18.0159 18.629 18.92C17.0143 20.2667 14.9776 21.0029 12.875 21Z" fill="#A1A1A1"/>
</svg>
