<svg width="19" height="22" viewBox="0 0 19 22" fill="none" xmlns="http://www.w3.org/2000/svg">
<path d="M9.13994 22V18.494C4.26079 18.2408 0.375 14.1895 0.375 9.25188C0.375 4.14874 4.52374 0 9.62688 0C14.73 0 18.8788 4.14874 18.8788 9.25188C18.8788 14.0726 15.5286 18.9225 10.5326 21.328L9.13994 22ZM9.62688 1.94776C5.59501 1.94776 2.32276 5.22001 2.32276 9.25188C2.32276 13.2838 5.59501 16.556 9.62688 16.556H11.0877V18.7959C14.6326 16.556 16.931 12.8747 16.931 9.25188C16.931 5.22001 13.6588 1.94776 9.62688 1.94776ZM8.653 13.1474H10.6008V15.0952H8.653V13.1474ZM10.6008 11.6866H8.653C8.653 8.52147 11.5746 8.76494 11.5746 6.81717C11.5746 5.7459 10.6982 4.86941 9.62688 4.86941C8.55561 4.86941 7.67912 5.7459 7.67912 6.81717H5.73135C5.73135 4.6649 7.4746 2.92165 9.62688 2.92165C11.7792 2.92165 13.5224 4.6649 13.5224 6.81717C13.5224 9.25188 10.6008 9.49535 10.6008 11.6866Z" fill="#A1A1A1"/>
</svg>
